<svg width="508" height="63" viewBox="0 0 508 63" fill="none" xmlns="http://www.w3.org/2000/svg">
<g filter="url(#filter0_d_1_2)">
<g filter="url(#filter1_d_1_2)">
<path fill-rule="evenodd" clip-rule="evenodd" d="M502.483 23.894C498.881 22.739 494.946 22.161 490.677 22.161C488.587 22.161 487.131 22.306 486.309 22.594C485.486 22.884 485.075 23.451 485.075 24.294C485.075 24.739 485.197 25.094 485.442 25.361C485.686 25.628 486.253 25.884 487.143 26.128C488.031 26.373 489.432 26.673 491.344 27.028L496.213 27.961C498.925 28.539 500.926 29.494 502.216 30.828C503.505 32.161 504.15 34.273 504.15 37.161C504.15 39.694 503.683 41.706 502.749 43.194C501.816 44.684 500.248 45.739 498.047 46.361C495.846 46.984 492.812 47.294 488.943 47.294C486.009 47.294 483.308 47.151 480.84 46.861C478.372 46.573 476.16 46.228 474.203 45.828V37.628L474.404 37.494C477.872 38.473 481.717 38.961 485.942 38.961C487.987 38.961 489.521 38.894 490.544 38.761C491.566 38.628 492.255 38.406 492.612 38.094C492.967 37.784 493.145 37.361 493.145 36.828C493.145 36.073 492.867 35.606 492.311 35.428C491.755 35.251 490.655 35.006 489.01 34.694L483.741 33.694C480.361 33.028 477.927 31.973 476.438 30.528C474.948 29.084 474.203 26.917 474.203 24.028C474.203 20.117 475.371 17.451 477.705 16.028C480.039 14.606 483.763 13.894 488.877 13.894C491.945 13.894 494.646 14.061 496.98 14.394C499.315 14.728 501.259 15.139 502.816 15.628L502.683 23.694L502.483 23.894ZM461.315 47.294C457.802 47.294 455.313 46.494 453.845 44.894C452.378 43.294 451.644 40.651 451.644 36.961V22.961H447.642V14.294H452.645L454.646 6.361H462.316V14.294H469.586V22.961H462.316V34.628C462.316 35.873 462.471 36.728 462.782 37.194C463.093 37.661 463.805 37.894 464.917 37.894C465.628 37.894 466.384 37.861 467.184 37.794C467.985 37.728 468.785 37.651 469.586 37.561L469.786 37.694V46.361C467.651 46.984 464.827 47.294 461.315 47.294ZM432.879 30.561C432.879 28.073 432.501 26.294 431.745 25.228C430.989 24.161 429.566 23.628 427.477 23.628C425.519 23.628 424.142 24.106 423.341 25.061C422.541 26.017 422.118 27.651 422.074 29.961V46.694H411.403V14.228H421.541L422.074 20.161H422.274C422.896 18.161 424.008 16.617 425.609 15.528C427.21 14.439 429.433 13.894 432.279 13.894C436.147 13.894 439.004 14.984 440.849 17.161C442.694 19.339 443.617 23.117 443.617 28.494V46.694H432.946L432.879 30.561ZM405.152 33.628L404.885 33.894H382.942C383.253 35.851 384.176 37.139 385.71 37.761C387.244 38.384 389.745 38.694 393.214 38.694C395.525 38.694 397.449 38.639 398.983 38.528C400.517 38.417 402.084 38.251 403.685 38.028L403.952 38.228V45.628C402.706 46.073 400.984 46.461 398.783 46.794C396.582 47.128 393.969 47.294 390.946 47.294C387.121 47.294 383.865 46.794 381.175 45.794C378.484 44.794 376.45 43.084 375.072 40.661C373.693 38.239 373.005 34.873 373.005 30.561C373.005 24.694 374.349 20.451 377.04 17.828C379.729 15.206 383.898 13.894 389.545 13.894C393.591 13.894 396.782 14.473 399.116 15.628C401.451 16.784 403.118 18.417 404.118 20.528C405.119 22.639 405.619 25.139 405.619 28.028C405.619 28.873 405.586 29.784 405.519 30.761C405.452 31.739 405.329 32.694 405.152 33.628ZM395.848 24.128C395.515 23.351 394.858 22.751 393.881 22.328C392.902 21.906 391.457 21.694 389.545 21.694C386.744 21.694 384.91 22.173 384.043 23.128C383.176 24.084 382.742 25.339 382.742 26.894H396.348C396.348 25.828 396.182 24.906 395.848 24.128ZM357.241 30.561C357.241 28.073 356.862 26.294 356.107 25.228C355.35 24.161 353.928 23.628 351.838 23.628C349.881 23.628 348.503 24.106 347.703 25.061C346.903 26.017 346.48 27.651 346.436 29.961V46.694H335.765V14.228H345.902L346.436 20.161H346.636C347.258 18.161 348.37 16.617 349.971 15.528C351.571 14.439 353.794 13.894 356.64 13.894C360.509 13.894 363.365 14.984 365.211 17.161C367.055 19.339 367.979 23.117 367.979 28.494V46.694H357.307L357.241 30.561ZM323.14 45.594C320.694 46.728 317.448 47.294 313.402 47.294C307.355 47.294 303.064 45.994 300.53 43.394C297.995 40.794 296.728 36.561 296.728 30.694C296.728 24.739 297.995 20.451 300.53 17.828C303.064 15.206 307.355 13.894 313.402 13.894C317.448 13.894 320.694 14.473 323.14 15.628C325.585 16.784 327.352 18.594 328.442 21.061C329.531 23.528 330.076 26.739 330.076 30.694C330.076 34.606 329.531 37.784 328.442 40.228C327.352 42.673 325.585 44.461 323.14 45.594ZM318.638 24.661C317.726 23.484 315.98 22.894 313.402 22.894C310.911 22.894 309.189 23.484 308.233 24.661C307.276 25.839 306.799 27.784 306.799 30.494C306.799 33.339 307.276 35.328 308.233 36.461C309.189 37.594 310.911 38.161 313.402 38.161C315.98 38.161 317.726 37.594 318.638 36.461C319.548 35.328 320.005 33.339 320.005 30.494C320.005 27.784 319.548 25.839 318.638 24.661ZM287.51 45.561C285.419 46.717 282.751 47.294 279.506 47.294C277.816 47.294 276.293 47.139 274.937 46.828C273.581 46.517 272.458 46.139 271.569 45.694L271.436 45.761V59.094H260.765V14.228H270.902L271.436 18.828V19.228H271.569C272.325 17.406 273.403 16.061 274.804 15.194C276.205 14.328 278.239 13.894 280.907 13.894C285.219 13.894 288.387 15.151 290.411 17.661C292.434 20.173 293.467 23.961 293.512 29.028C293.601 33.517 293.145 37.106 292.145 39.794C291.145 42.484 289.599 44.406 287.51 45.561ZM282.041 24.828C281.329 23.584 279.795 22.961 277.439 22.961C275.66 22.961 274.214 23.506 273.103 24.594C271.991 25.684 271.436 27.539 271.436 30.161V37.161C273.08 37.828 275.015 38.161 277.238 38.161C279.328 38.161 280.829 37.661 281.74 36.661C282.651 35.661 283.108 33.651 283.108 30.628C283.108 28.006 282.751 26.073 282.041 24.828ZM242.711 29.828C242.711 27.651 242.388 26.073 241.744 25.094C241.099 24.117 239.843 23.628 237.976 23.628C236.108 23.628 234.852 24.117 234.208 25.094C233.563 26.073 233.241 27.651 233.241 29.828V46.694H222.569L222.502 29.828C222.502 27.651 222.179 26.073 221.535 25.094C220.89 24.117 219.635 23.628 217.767 23.628C215.9 23.628 214.643 24.117 213.999 25.094C213.354 26.073 213.032 27.651 213.032 29.828V46.694H202.36V14.228H212.498L213.032 20.161H213.232C213.809 18.206 214.821 16.673 216.266 15.561C217.711 14.451 219.768 13.894 222.436 13.894C225.104 13.894 227.205 14.451 228.739 15.561C230.273 16.673 231.262 18.206 231.707 20.161H231.907C232.484 18.161 233.607 16.617 235.275 15.528C236.942 14.439 239.42 13.894 242.711 13.894C246.001 13.894 248.614 14.984 250.548 17.161C252.482 19.339 253.449 23.117 253.449 28.494V46.694H242.778L242.711 29.828ZM189.735 45.594C187.29 46.728 184.043 47.294 179.998 47.294C173.95 47.294 169.66 45.994 167.125 43.394C164.591 40.794 163.324 36.561 163.324 30.694C163.324 24.739 164.591 20.451 167.125 17.828C169.66 15.206 173.95 13.894 179.998 13.894C184.043 13.894 187.29 14.473 189.735 15.628C192.18 16.784 193.948 18.594 195.038 21.061C196.127 23.528 196.672 26.739 196.672 30.694C196.672 34.606 196.127 37.784 195.038 40.228C193.948 42.673 192.18 44.461 189.735 45.594ZM185.233 24.661C184.322 23.484 182.576 22.894 179.998 22.894C177.507 22.894 175.784 23.484 174.829 24.661C173.872 25.839 173.395 27.784 173.395 30.494C173.395 33.339 173.872 35.328 174.829 36.461C175.784 37.594 177.507 38.161 179.998 38.161C182.576 38.161 184.322 37.594 185.233 36.461C186.144 35.328 186.601 33.339 186.601 30.494C186.601 27.784 186.144 25.839 185.233 24.661ZM146.578 47.294C142.977 47.294 139.942 46.984 137.474 46.361C135.006 45.739 133.027 44.639 131.538 43.061C130.048 41.484 128.97 39.251 128.303 36.361C127.636 33.473 127.303 29.761 127.303 25.228C127.303 20.873 127.636 17.294 128.303 14.494C128.97 11.694 130.048 9.528 131.538 7.994C133.027 6.461 135.006 5.394 137.474 4.794C139.942 4.194 142.977 3.894 146.578 3.894C149.379 3.894 151.802 3.994 153.848 4.194C155.893 4.394 157.983 4.739 160.117 5.228V13.894L159.917 14.028C158.05 13.584 156.249 13.261 154.515 13.061C152.781 12.861 150.647 12.761 148.112 12.761C146.066 12.761 144.388 12.906 143.077 13.194C141.765 13.484 140.731 14.051 139.975 14.894C139.219 15.739 138.697 16.984 138.408 18.628C138.118 20.273 137.974 22.473 137.974 25.228C137.974 28.117 138.118 30.439 138.408 32.194C138.697 33.951 139.219 35.273 139.975 36.161C140.731 37.051 141.765 37.651 143.077 37.961C144.388 38.273 146.066 38.428 148.112 38.428C150.602 38.428 152.725 38.351 154.482 38.194C156.238 38.039 158.005 37.739 159.784 37.294L160.117 37.561V45.961C157.983 46.406 155.893 46.739 153.848 46.961C151.802 47.184 149.379 47.294 146.578 47.294ZM110.539 30.561C110.539 28.073 110.16 26.294 109.405 25.228C108.648 24.161 107.226 23.628 105.136 23.628C103.179 23.628 101.801 24.106 101.001 25.061C100.201 26.017 99.778 27.651 99.734 29.961V46.694H89.062V14.228H99.2L99.734 20.161H99.934C100.556 18.161 101.668 16.617 103.269 15.528C104.869 14.439 107.092 13.894 109.938 13.894C113.807 13.894 116.663 14.984 118.509 17.161C120.353 19.339 121.277 23.117 121.277 28.494V46.694H110.605L110.539 30.561ZM76.438 45.594C73.992 46.728 70.745 47.294 66.7 47.294C60.652 47.294 56.362 45.994 53.828 43.394C51.293 40.794 50.026 36.561 50.026 30.694C50.026 24.739 51.293 20.451 53.828 17.828C56.362 15.206 60.652 13.894 66.7 13.894C70.745 13.894 73.992 14.473 76.438 15.628C78.882 16.784 80.65 18.594 81.74 21.061C82.829 23.528 83.374 26.739 83.374 30.694C83.374 34.606 82.829 37.784 81.74 40.228C80.65 42.673 78.882 44.461 76.438 45.594ZM71.936 24.661C71.024 23.484 69.278 22.894 66.7 22.894C64.209 22.894 62.487 23.484 61.531 24.661C60.574 25.839 60.097 27.784 60.097 30.494C60.097 33.339 60.574 35.328 61.531 36.461C62.487 37.594 64.209 38.161 66.7 38.161C69.278 38.161 71.024 37.594 71.936 36.461C72.846 35.328 73.303 33.339 73.303 30.494C73.303 27.784 72.846 25.839 71.936 24.661ZM45.189 24.428C44.277 24.294 43.244 24.228 42.088 24.228C40.442 24.228 38.964 24.494 37.653 25.028C36.341 25.561 35.318 26.594 34.585 28.128C33.851 29.661 33.484 31.939 33.484 34.961L33.351 46.694H22.679V14.228H31.35L32.217 20.894H32.417C32.817 18.406 33.773 16.617 35.285 15.528C36.796 14.439 39.042 13.894 42.021 13.894C43.222 13.894 44.311 13.951 45.289 14.061C46.267 14.173 47.09 14.273 47.757 14.361V24.761L47.624 24.894C46.912 24.717 46.1 24.561 45.189 24.428ZM3.84998 4.494H14.521V46.694H3.84998V4.494Z" fill="#808080"/>
<path fill-rule="evenodd" clip-rule="evenodd" d="M502.483 23.894C498.881 22.739 494.946 22.161 490.677 22.161C488.587 22.161 487.131 22.306 486.309 22.594C485.486 22.884 485.075 23.451 485.075 24.294C485.075 24.739 485.197 25.094 485.442 25.361C485.686 25.628 486.253 25.884 487.143 26.128C488.031 26.373 489.432 26.673 491.344 27.028L496.213 27.961C498.925 28.539 500.926 29.494 502.216 30.828C503.505 32.161 504.15 34.273 504.15 37.161C504.15 39.694 503.683 41.706 502.749 43.194C501.816 44.684 500.248 45.739 498.047 46.361C495.846 46.984 492.812 47.294 488.943 47.294C486.009 47.294 483.308 47.151 480.84 46.861C478.372 46.573 476.16 46.228 474.203 45.828V37.628L474.404 37.494C477.872 38.473 481.717 38.961 485.942 38.961C487.987 38.961 489.521 38.894 490.544 38.761C491.566 38.628 492.255 38.406 492.612 38.094C492.967 37.784 493.145 37.361 493.145 36.828C493.145 36.073 492.867 35.606 492.311 35.428C491.755 35.251 490.655 35.006 489.01 34.694L483.741 33.694C480.361 33.028 477.927 31.973 476.438 30.528C474.948 29.084 474.203 26.917 474.203 24.028C474.203 20.117 475.371 17.451 477.705 16.028C480.039 14.606 483.763 13.894 488.877 13.894C491.945 13.894 494.646 14.061 496.98 14.394C499.315 14.728 501.259 15.139 502.816 15.628L502.683 23.694L502.483 23.894ZM461.315 47.294C457.802 47.294 455.313 46.494 453.845 44.894C452.378 43.294 451.644 40.651 451.644 36.961V22.961H447.642V14.294H452.645L454.646 6.361H462.316V14.294H469.586V22.961H462.316V34.628C462.316 35.873 462.471 36.728 462.782 37.194C463.093 37.661 463.805 37.894 464.917 37.894C465.628 37.894 466.384 37.861 467.184 37.794C467.985 37.728 468.785 37.651 469.586 37.561L469.786 37.694V46.361C467.651 46.984 464.827 47.294 461.315 47.294ZM432.879 30.561C432.879 28.073 432.501 26.294 431.745 25.228C430.989 24.161 429.566 23.628 427.477 23.628C425.519 23.628 424.142 24.106 423.341 25.061C422.541 26.017 422.118 27.651 422.074 29.961V46.694H411.403V14.228H421.541L422.074 20.161H422.274C422.896 18.161 424.008 16.617 425.609 15.528C427.21 14.439 429.433 13.894 432.279 13.894C436.147 13.894 439.004 14.984 440.849 17.161C442.694 19.339 443.617 23.117 443.617 28.494V46.694H432.946L432.879 30.561ZM405.152 33.628L404.885 33.894H382.942C383.253 35.851 384.176 37.139 385.71 37.761C387.244 38.384 389.745 38.694 393.214 38.694C395.525 38.694 397.449 38.639 398.983 38.528C400.517 38.417 402.084 38.251 403.685 38.028L403.952 38.228V45.628C402.706 46.073 400.984 46.461 398.783 46.794C396.582 47.128 393.969 47.294 390.946 47.294C387.121 47.294 383.865 46.794 381.175 45.794C378.484 44.794 376.45 43.084 375.072 40.661C373.693 38.239 373.005 34.873 373.005 30.561C373.005 24.694 374.349 20.451 377.04 17.828C379.729 15.206 383.898 13.894 389.545 13.894C393.591 13.894 396.782 14.473 399.116 15.628C401.451 16.784 403.118 18.417 404.118 20.528C405.119 22.639 405.619 25.139 405.619 28.028C405.619 28.873 405.586 29.784 405.519 30.761C405.452 31.739 405.329 32.694 405.152 33.628ZM395.848 24.128C395.515 23.351 394.858 22.751 393.881 22.328C392.902 21.906 391.457 21.694 389.545 21.694C386.744 21.694 384.91 22.173 384.043 23.128C383.176 24.084 382.742 25.339 382.742 26.894H396.348C396.348 25.828 396.182 24.906 395.848 24.128ZM357.241 30.561C357.241 28.073 356.862 26.294 356.107 25.228C355.35 24.161 353.928 23.628 351.838 23.628C349.881 23.628 348.503 24.106 347.703 25.061C346.903 26.017 346.48 27.651 346.436 29.961V46.694H335.765V14.228H345.902L346.436 20.161H346.636C347.258 18.161 348.37 16.617 349.971 15.528C351.571 14.439 353.794 13.894 356.64 13.894C360.509 13.894 363.365 14.984 365.211 17.161C367.055 19.339 367.979 23.117 367.979 28.494V46.694H357.307L357.241 30.561ZM323.14 45.594C320.694 46.728 317.448 47.294 313.402 47.294C307.355 47.294 303.064 45.994 300.53 43.394C297.995 40.794 296.728 36.561 296.728 30.694C296.728 24.739 297.995 20.451 300.53 17.828C303.064 15.206 307.355 13.894 313.402 13.894C317.448 13.894 320.694 14.473 323.14 15.628C325.585 16.784 327.352 18.594 328.442 21.061C329.531 23.528 330.076 26.739 330.076 30.694C330.076 34.606 329.531 37.784 328.442 40.228C327.352 42.673 325.585 44.461 323.14 45.594ZM318.638 24.661C317.726 23.484 315.98 22.894 313.402 22.894C310.911 22.894 309.189 23.484 308.233 24.661C307.276 25.839 306.799 27.784 306.799 30.494C306.799 33.339 307.276 35.328 308.233 36.461C309.189 37.594 310.911 38.161 313.402 38.161C315.98 38.161 317.726 37.594 318.638 36.461C319.548 35.328 320.005 33.339 320.005 30.494C320.005 27.784 319.548 25.839 318.638 24.661ZM287.51 45.561C285.419 46.717 282.751 47.294 279.506 47.294C277.816 47.294 276.293 47.139 274.937 46.828C273.581 46.517 272.458 46.139 271.569 45.694L271.436 45.761V59.094H260.765V14.228H270.902L271.436 18.828V19.228H271.569C272.325 17.406 273.403 16.061 274.804 15.194C276.205 14.328 278.239 13.894 280.907 13.894C285.219 13.894 288.387 15.151 290.411 17.661C292.434 20.173 293.467 23.961 293.512 29.028C293.601 33.517 293.145 37.106 292.145 39.794C291.145 42.484 289.599 44.406 287.51 45.561ZM282.041 24.828C281.329 23.584 279.795 22.961 277.439 22.961C275.66 22.961 274.214 23.506 273.103 24.594C271.991 25.684 271.436 27.539 271.436 30.161V37.161C273.08 37.828 275.015 38.161 277.238 38.161C279.328 38.161 280.829 37.661 281.74 36.661C282.651 35.661 283.108 33.651 283.108 30.628C283.108 28.006 282.751 26.073 282.041 24.828ZM242.711 29.828C242.711 27.651 242.388 26.073 241.744 25.094C241.099 24.117 239.843 23.628 237.976 23.628C236.108 23.628 234.852 24.117 234.208 25.094C233.563 26.073 233.241 27.651 233.241 29.828V46.694H222.569L222.502 29.828C222.502 27.651 222.179 26.073 221.535 25.094C220.89 24.117 219.635 23.628 217.767 23.628C215.9 23.628 214.643 24.117 213.999 25.094C213.354 26.073 213.032 27.651 213.032 29.828V46.694H202.36V14.228H212.498L213.032 20.161H213.232C213.809 18.206 214.821 16.673 216.266 15.561C217.711 14.451 219.768 13.894 222.436 13.894C225.104 13.894 227.205 14.451 228.739 15.561C230.273 16.673 231.262 18.206 231.707 20.161H231.907C232.484 18.161 233.607 16.617 235.275 15.528C236.942 14.439 239.42 13.894 242.711 13.894C246.001 13.894 248.614 14.984 250.548 17.161C252.482 19.339 253.449 23.117 253.449 28.494V46.694H242.778L242.711 29.828ZM189.735 45.594C187.29 46.728 184.043 47.294 179.998 47.294C173.95 47.294 169.66 45.994 167.125 43.394C164.591 40.794 163.324 36.561 163.324 30.694C163.324 24.739 164.591 20.451 167.125 17.828C169.66 15.206 173.95 13.894 179.998 13.894C184.043 13.894 187.29 14.473 189.735 15.628C192.18 16.784 193.948 18.594 195.038 21.061C196.127 23.528 196.672 26.739 196.672 30.694C196.672 34.606 196.127 37.784 195.038 40.228C193.948 42.673 192.18 44.461 189.735 45.594ZM185.233 24.661C184.322 23.484 182.576 22.894 179.998 22.894C177.507 22.894 175.784 23.484 174.829 24.661C173.872 25.839 173.395 27.784 173.395 30.494C173.395 33.339 173.872 35.328 174.829 36.461C175.784 37.594 177.507 38.161 179.998 38.161C182.576 38.161 184.322 37.594 185.233 36.461C186.144 35.328 186.601 33.339 186.601 30.494C186.601 27.784 186.144 25.839 185.233 24.661ZM146.578 47.294C142.977 47.294 139.942 46.984 137.474 46.361C135.006 45.739 133.027 44.639 131.538 43.061C130.048 41.484 128.97 39.251 128.303 36.361C127.636 33.473 127.303 29.761 127.303 25.228C127.303 20.873 127.636 17.294 128.303 14.494C128.97 11.694 130.048 9.528 131.538 7.994C133.027 6.461 135.006 5.394 137.474 4.794C139.942 4.194 142.977 3.894 146.578 3.894C149.379 3.894 151.802 3.994 153.848 4.194C155.893 4.394 157.983 4.739 160.117 5.228V13.894L159.917 14.028C158.05 13.584 156.249 13.261 154.515 13.061C152.781 12.861 150.647 12.761 148.112 12.761C146.066 12.761 144.388 12.906 143.077 13.194C141.765 13.484 140.731 14.051 139.975 14.894C139.219 15.739 138.697 16.984 138.408 18.628C138.118 20.273 137.974 22.473 137.974 25.228C137.974 28.117 138.118 30.439 138.408 32.194C138.697 33.951 139.219 35.273 139.975 36.161C140.731 37.051 141.765 37.651 143.077 37.961C144.388 38.273 146.066 38.428 148.112 38.428C150.602 38.428 152.725 38.351 154.482 38.194C156.238 38.039 158.005 37.739 159.784 37.294L160.117 37.561V45.961C157.983 46.406 155.893 46.739 153.848 46.961C151.802 47.184 149.379 47.294 146.578 47.294ZM110.539 30.561C110.539 28.073 110.16 26.294 109.405 25.228C108.648 24.161 107.226 23.628 105.136 23.628C103.179 23.628 101.801 24.106 101.001 25.061C100.201 26.017 99.778 27.651 99.734 29.961V46.694H89.062V14.228H99.2L99.734 20.161H99.934C100.556 18.161 101.668 16.617 103.269 15.528C104.869 14.439 107.092 13.894 109.938 13.894C113.807 13.894 116.663 14.984 118.509 17.161C120.353 19.339 121.277 23.117 121.277 28.494V46.694H110.605L110.539 30.561ZM76.438 45.594C73.992 46.728 70.745 47.294 66.7 47.294C60.652 47.294 56.362 45.994 53.828 43.394C51.293 40.794 50.026 36.561 50.026 30.694C50.026 24.739 51.293 20.451 53.828 17.828C56.362 15.206 60.652 13.894 66.7 13.894C70.745 13.894 73.992 14.473 76.438 15.628C78.882 16.784 80.65 18.594 81.74 21.061C82.829 23.528 83.374 26.739 83.374 30.694C83.374 34.606 82.829 37.784 81.74 40.228C80.65 42.673 78.882 44.461 76.438 45.594ZM71.936 24.661C71.024 23.484 69.278 22.894 66.7 22.894C64.209 22.894 62.487 23.484 61.531 24.661C60.574 25.839 60.097 27.784 60.097 30.494C60.097 33.339 60.574 35.328 61.531 36.461C62.487 37.594 64.209 38.161 66.7 38.161C69.278 38.161 71.024 37.594 71.936 36.461C72.846 35.328 73.303 33.339 73.303 30.494C73.303 27.784 72.846 25.839 71.936 24.661ZM45.189 24.428C44.277 24.294 43.244 24.228 42.088 24.228C40.442 24.228 38.964 24.494 37.653 25.028C36.341 25.561 35.318 26.594 34.585 28.128C33.851 29.661 33.484 31.939 33.484 34.961L33.351 46.694H22.679V14.228H31.35L32.217 20.894H32.417C32.817 18.406 33.773 16.617 35.285 15.528C36.796 14.439 39.042 13.894 42.021 13.894C43.222 13.894 44.311 13.951 45.289 14.061C46.267 14.173 47.09 14.273 47.757 14.361V24.761L47.624 24.894C46.912 24.717 46.1 24.561 45.189 24.428ZM3.84998 4.494H14.521V46.694H3.84998V4.494Z" stroke="black" stroke-linejoin="round"/>
</g>
</g>
<g filter="url(#filter2_d_1_2)">
<path fill-rule="evenodd" clip-rule="evenodd" d="M502.483 23.894C498.881 22.739 494.946 22.161 490.677 22.161C488.587 22.161 487.131 22.306 486.309 22.594C485.486 22.884 485.075 23.451 485.075 24.294C485.075 24.739 485.197 25.094 485.442 25.361C485.686 25.628 486.253 25.884 487.143 26.128C488.031 26.373 489.432 26.673 491.344 27.028L496.213 27.961C498.925 28.539 500.926 29.494 502.216 30.828C503.505 32.161 504.15 34.273 504.15 37.161C504.15 39.694 503.683 41.706 502.749 43.194C501.816 44.684 500.248 45.739 498.047 46.361C495.846 46.984 492.812 47.294 488.943 47.294C486.009 47.294 483.308 47.151 480.84 46.861C478.372 46.573 476.16 46.228 474.203 45.828V37.628L474.404 37.494C477.872 38.473 481.717 38.961 485.942 38.961C487.987 38.961 489.521 38.894 490.544 38.761C491.566 38.628 492.255 38.406 492.612 38.094C492.967 37.784 493.145 37.361 493.145 36.828C493.145 36.073 492.867 35.606 492.311 35.428C491.755 35.251 490.655 35.006 489.01 34.694L483.741 33.694C480.361 33.028 477.927 31.973 476.438 30.528C474.948 29.084 474.203 26.917 474.203 24.028C474.203 20.117 475.371 17.451 477.705 16.028C480.039 14.606 483.763 13.894 488.877 13.894C491.945 13.894 494.646 14.061 496.98 14.394C499.315 14.728 501.259 15.139 502.816 15.628L502.683 23.694L502.483 23.894ZM461.315 47.294C457.802 47.294 455.313 46.494 453.845 44.894C452.378 43.294 451.644 40.651 451.644 36.961V22.961H447.642V14.294H452.645L454.646 6.361H462.316V14.294H469.586V22.961H462.316V34.628C462.316 35.873 462.471 36.728 462.782 37.194C463.093 37.661 463.805 37.894 464.917 37.894C465.628 37.894 466.384 37.861 467.184 37.794C467.985 37.728 468.785 37.651 469.586 37.561L469.786 37.694V46.361C467.651 46.984 464.827 47.294 461.315 47.294ZM432.879 30.561C432.879 28.073 432.501 26.294 431.745 25.228C430.989 24.161 429.566 23.628 427.477 23.628C425.519 23.628 424.142 24.106 423.341 25.061C422.541 26.017 422.118 27.651 422.074 29.961V46.694H411.403V14.228H421.541L422.074 20.161H422.274C422.896 18.161 424.008 16.617 425.609 15.528C427.21 14.439 429.433 13.894 432.279 13.894C436.147 13.894 439.004 14.984 440.849 17.161C442.694 19.339 443.617 23.117 443.617 28.494V46.694H432.946L432.879 30.561ZM405.152 33.628L404.885 33.894H382.942C383.253 35.851 384.176 37.139 385.71 37.761C387.244 38.384 389.745 38.694 393.214 38.694C395.525 38.694 397.449 38.639 398.983 38.528C400.517 38.417 402.084 38.251 403.685 38.028L403.952 38.228V45.628C402.706 46.073 400.984 46.461 398.783 46.794C396.582 47.128 393.969 47.294 390.946 47.294C387.121 47.294 383.865 46.794 381.175 45.794C378.484 44.794 376.45 43.084 375.072 40.661C373.693 38.239 373.005 34.873 373.005 30.561C373.005 24.694 374.349 20.451 377.04 17.828C379.729 15.206 383.898 13.894 389.545 13.894C393.591 13.894 396.782 14.473 399.116 15.628C401.451 16.784 403.118 18.417 404.118 20.528C405.119 22.639 405.619 25.139 405.619 28.028C405.619 28.873 405.586 29.784 405.519 30.761C405.452 31.739 405.329 32.694 405.152 33.628ZM395.848 24.128C395.515 23.351 394.858 22.751 393.881 22.328C392.902 21.906 391.457 21.694 389.545 21.694C386.744 21.694 384.91 22.173 384.043 23.128C383.176 24.084 382.742 25.339 382.742 26.894H396.348C396.348 25.828 396.182 24.906 395.848 24.128ZM357.241 30.561C357.241 28.073 356.862 26.294 356.107 25.228C355.35 24.161 353.928 23.628 351.838 23.628C349.881 23.628 348.503 24.106 347.703 25.061C346.903 26.017 346.48 27.651 346.436 29.961V46.694H335.765V14.228H345.902L346.436 20.161H346.636C347.258 18.161 348.37 16.617 349.971 15.528C351.571 14.439 353.794 13.894 356.64 13.894C360.509 13.894 363.365 14.984 365.211 17.161C367.055 19.339 367.979 23.117 367.979 28.494V46.694H357.307L357.241 30.561ZM323.14 45.594C320.694 46.728 317.448 47.294 313.402 47.294C307.355 47.294 303.064 45.994 300.53 43.394C297.995 40.794 296.728 36.561 296.728 30.694C296.728 24.739 297.995 20.451 300.53 17.828C303.064 15.206 307.355 13.894 313.402 13.894C317.448 13.894 320.694 14.473 323.14 15.628C325.585 16.784 327.352 18.594 328.442 21.061C329.531 23.528 330.076 26.739 330.076 30.694C330.076 34.606 329.531 37.784 328.442 40.228C327.352 42.673 325.585 44.461 323.14 45.594ZM318.638 24.661C317.726 23.484 315.98 22.894 313.402 22.894C310.911 22.894 309.189 23.484 308.233 24.661C307.276 25.839 306.799 27.784 306.799 30.494C306.799 33.339 307.276 35.328 308.233 36.461C309.189 37.594 310.911 38.161 313.402 38.161C315.98 38.161 317.726 37.594 318.638 36.461C319.548 35.328 320.005 33.339 320.005 30.494C320.005 27.784 319.548 25.839 318.638 24.661ZM287.51 45.561C285.419 46.717 282.751 47.294 279.506 47.294C277.816 47.294 276.293 47.139 274.937 46.828C273.581 46.517 272.458 46.139 271.569 45.694L271.436 45.761V59.094H260.765V14.228H270.902L271.436 18.828V19.228H271.569C272.325 17.406 273.403 16.061 274.804 15.194C276.205 14.328 278.239 13.894 280.907 13.894C285.219 13.894 288.387 15.151 290.411 17.661C292.434 20.173 293.467 23.961 293.512 29.028C293.601 33.517 293.145 37.106 292.145 39.794C291.145 42.484 289.599 44.406 287.51 45.561ZM282.041 24.828C281.329 23.584 279.795 22.961 277.439 22.961C275.66 22.961 274.214 23.506 273.103 24.594C271.991 25.684 271.436 27.539 271.436 30.161V37.161C273.08 37.828 275.015 38.161 277.238 38.161C279.328 38.161 280.829 37.661 281.74 36.661C282.651 35.661 283.108 33.651 283.108 30.628C283.108 28.006 282.751 26.073 282.041 24.828ZM242.711 29.828C242.711 27.651 242.388 26.073 241.744 25.094C241.099 24.117 239.843 23.628 237.976 23.628C236.108 23.628 234.852 24.117 234.208 25.094C233.563 26.073 233.241 27.651 233.241 29.828V46.694H222.569L222.502 29.828C222.502 27.651 222.179 26.073 221.535 25.094C220.89 24.117 219.635 23.628 217.767 23.628C215.9 23.628 214.643 24.117 213.999 25.094C213.354 26.073 213.032 27.651 213.032 29.828V46.694H202.36V14.228H212.498L213.032 20.161H213.232C213.809 18.206 214.821 16.673 216.266 15.561C217.711 14.451 219.768 13.894 222.436 13.894C225.104 13.894 227.205 14.451 228.739 15.561C230.273 16.673 231.262 18.206 231.707 20.161H231.907C232.484 18.161 233.607 16.617 235.275 15.528C236.942 14.439 239.42 13.894 242.711 13.894C246.001 13.894 248.614 14.984 250.548 17.161C252.482 19.339 253.449 23.117 253.449 28.494V46.694H242.778L242.711 29.828ZM189.735 45.594C187.29 46.728 184.043 47.294 179.998 47.294C173.95 47.294 169.66 45.994 167.125 43.394C164.591 40.794 163.324 36.561 163.324 30.694C163.324 24.739 164.591 20.451 167.125 17.828C169.66 15.206 173.95 13.894 179.998 13.894C184.043 13.894 187.29 14.473 189.735 15.628C192.18 16.784 193.948 18.594 195.038 21.061C196.127 23.528 196.672 26.739 196.672 30.694C196.672 34.606 196.127 37.784 195.038 40.228C193.948 42.673 192.18 44.461 189.735 45.594ZM185.233 24.661C184.322 23.484 182.576 22.894 179.998 22.894C177.507 22.894 175.784 23.484 174.829 24.661C173.872 25.839 173.395 27.784 173.395 30.494C173.395 33.339 173.872 35.328 174.829 36.461C175.784 37.594 177.507 38.161 179.998 38.161C182.576 38.161 184.322 37.594 185.233 36.461C186.144 35.328 186.601 33.339 186.601 30.494C186.601 27.784 186.144 25.839 185.233 24.661ZM146.578 47.294C142.977 47.294 139.942 46.984 137.474 46.361C135.006 45.739 133.027 44.639 131.538 43.061C130.048 41.484 128.97 39.251 128.303 36.361C127.636 33.473 127.303 29.761 127.303 25.228C127.303 20.873 127.636 17.294 128.303 14.494C128.97 11.694 130.048 9.528 131.538 7.994C133.027 6.461 135.006 5.394 137.474 4.794C139.942 4.194 142.977 3.894 146.578 3.894C149.379 3.894 151.802 3.994 153.848 4.194C155.893 4.394 157.983 4.739 160.117 5.228V13.894L159.917 14.028C158.05 13.584 156.249 13.261 154.515 13.061C152.781 12.861 150.647 12.761 148.112 12.761C146.066 12.761 144.388 12.906 143.077 13.194C141.765 13.484 140.731 14.051 139.975 14.894C139.219 15.739 138.697 16.984 138.408 18.628C138.118 20.273 137.974 22.473 137.974 25.228C137.974 28.117 138.118 30.439 138.408 32.194C138.697 33.951 139.219 35.273 139.975 36.161C140.731 37.051 141.765 37.651 143.077 37.961C144.388 38.273 146.066 38.428 148.112 38.428C150.602 38.428 152.725 38.351 154.482 38.194C156.238 38.039 158.005 37.739 159.784 37.294L160.117 37.561V45.961C157.983 46.406 155.893 46.739 153.848 46.961C151.802 47.184 149.379 47.294 146.578 47.294ZM110.539 30.561C110.539 28.073 110.16 26.294 109.405 25.228C108.648 24.161 107.226 23.628 105.136 23.628C103.179 23.628 101.801 24.106 101.001 25.061C100.201 26.017 99.778 27.651 99.734 29.961V46.694H89.062V14.228H99.2L99.734 20.161H99.934C100.556 18.161 101.668 16.617 103.269 15.528C104.869 14.439 107.092 13.894 109.938 13.894C113.807 13.894 116.663 14.984 118.509 17.161C120.353 19.339 121.277 23.117 121.277 28.494V46.694H110.605L110.539 30.561ZM76.438 45.594C73.992 46.728 70.745 47.294 66.7 47.294C60.652 47.294 56.362 45.994 53.828 43.394C51.293 40.794 50.026 36.561 50.026 30.694C50.026 24.739 51.293 20.451 53.828 17.828C56.362 15.206 60.652 13.894 66.7 13.894C70.745 13.894 73.992 14.473 76.438 15.628C78.882 16.784 80.65 18.594 81.74 21.061C82.829 23.528 83.374 26.739 83.374 30.694C83.374 34.606 82.829 37.784 81.74 40.228C80.65 42.673 78.882 44.461 76.438 45.594ZM71.936 24.661C71.024 23.484 69.278 22.894 66.7 22.894C64.209 22.894 62.487 23.484 61.531 24.661C60.574 25.839 60.097 27.784 60.097 30.494C60.097 33.339 60.574 35.328 61.531 36.461C62.487 37.594 64.209 38.161 66.7 38.161C69.278 38.161 71.024 37.594 71.936 36.461C72.846 35.328 73.303 33.339 73.303 30.494C73.303 27.784 72.846 25.839 71.936 24.661ZM45.189 24.428C44.277 24.294 43.244 24.228 42.088 24.228C40.442 24.228 38.964 24.494 37.653 25.028C36.341 25.561 35.318 26.594 34.585 28.128C33.851 29.661 33.484 31.939 33.484 34.961L33.351 46.694H22.679V14.228H31.35L32.217 20.894H32.417C32.817 18.406 33.773 16.617 35.285 15.528C36.796 14.439 39.042 13.894 42.021 13.894C43.222 13.894 44.311 13.951 45.289 14.061C46.267 14.173 47.09 14.273 47.757 14.361V24.761L47.624 24.894C46.912 24.717 46.1 24.561 45.189 24.428ZM3.84998 4.494H14.521V46.694H3.84998V4.494Z" fill="url(#paint0_linear_1_2)"/>
<path fill-rule="evenodd" clip-rule="evenodd" d="M502.483 23.894C498.881 22.739 494.946 22.161 490.677 22.161C488.587 22.161 487.131 22.306 486.309 22.594C485.486 22.884 485.075 23.451 485.075 24.294C485.075 24.739 485.197 25.094 485.442 25.361C485.686 25.628 486.253 25.884 487.143 26.128C488.031 26.373 489.432 26.673 491.344 27.028L496.213 27.961C498.925 28.539 500.926 29.494 502.216 30.828C503.505 32.161 504.15 34.273 504.15 37.161C504.15 39.694 503.683 41.706 502.749 43.194C501.816 44.684 500.248 45.739 498.047 46.361C495.846 46.984 492.812 47.294 488.943 47.294C486.009 47.294 483.308 47.151 480.84 46.861C478.372 46.573 476.16 46.228 474.203 45.828V37.628L474.404 37.494C477.872 38.473 481.717 38.961 485.942 38.961C487.987 38.961 489.521 38.894 490.544 38.761C491.566 38.628 492.255 38.406 492.612 38.094C492.967 37.784 493.145 37.361 493.145 36.828C493.145 36.073 492.867 35.606 492.311 35.428C491.755 35.251 490.655 35.006 489.01 34.694L483.741 33.694C480.361 33.028 477.927 31.973 476.438 30.528C474.948 29.084 474.203 26.917 474.203 24.028C474.203 20.117 475.371 17.451 477.705 16.028C480.039 14.606 483.763 13.894 488.877 13.894C491.945 13.894 494.646 14.061 496.98 14.394C499.315 14.728 501.259 15.139 502.816 15.628L502.683 23.694L502.483 23.894ZM461.315 47.294C457.802 47.294 455.313 46.494 453.845 44.894C452.378 43.294 451.644 40.651 451.644 36.961V22.961H447.642V14.294H452.645L454.646 6.361H462.316V14.294H469.586V22.961H462.316V34.628C462.316 35.873 462.471 36.728 462.782 37.194C463.093 37.661 463.805 37.894 464.917 37.894C465.628 37.894 466.384 37.861 467.184 37.794C467.985 37.728 468.785 37.651 469.586 37.561L469.786 37.694V46.361C467.651 46.984 464.827 47.294 461.315 47.294ZM432.879 30.561C432.879 28.073 432.501 26.294 431.745 25.228C430.989 24.161 429.566 23.628 427.477 23.628C425.519 23.628 424.142 24.106 423.341 25.061C422.541 26.017 422.118 27.651 422.074 29.961V46.694H411.403V14.228H421.541L422.074 20.161H422.274C422.896 18.161 424.008 16.617 425.609 15.528C427.21 14.439 429.433 13.894 432.279 13.894C436.147 13.894 439.004 14.984 440.849 17.161C442.694 19.339 443.617 23.117 443.617 28.494V46.694H432.946L432.879 30.561ZM405.152 33.628L404.885 33.894H382.942C383.253 35.851 384.176 37.139 385.71 37.761C387.244 38.384 389.745 38.694 393.214 38.694C395.525 38.694 397.449 38.639 398.983 38.528C400.517 38.417 402.084 38.251 403.685 38.028L403.952 38.228V45.628C402.706 46.073 400.984 46.461 398.783 46.794C396.582 47.128 393.969 47.294 390.946 47.294C387.121 47.294 383.865 46.794 381.175 45.794C378.484 44.794 376.45 43.084 375.072 40.661C373.693 38.239 373.005 34.873 373.005 30.561C373.005 24.694 374.349 20.451 377.04 17.828C379.729 15.206 383.898 13.894 389.545 13.894C393.591 13.894 396.782 14.473 399.116 15.628C401.451 16.784 403.118 18.417 404.118 20.528C405.119 22.639 405.619 25.139 405.619 28.028C405.619 28.873 405.586 29.784 405.519 30.761C405.452 31.739 405.329 32.694 405.152 33.628ZM395.848 24.128C395.515 23.351 394.858 22.751 393.881 22.328C392.902 21.906 391.457 21.694 389.545 21.694C386.744 21.694 384.91 22.173 384.043 23.128C383.176 24.084 382.742 25.339 382.742 26.894H396.348C396.348 25.828 396.182 24.906 395.848 24.128ZM357.241 30.561C357.241 28.073 356.862 26.294 356.107 25.228C355.35 24.161 353.928 23.628 351.838 23.628C349.881 23.628 348.503 24.106 347.703 25.061C346.903 26.017 346.48 27.651 346.436 29.961V46.694H335.765V14.228H345.902L346.436 20.161H346.636C347.258 18.161 348.37 16.617 349.971 15.528C351.571 14.439 353.794 13.894 356.64 13.894C360.509 13.894 363.365 14.984 365.211 17.161C367.055 19.339 367.979 23.117 367.979 28.494V46.694H357.307L357.241 30.561ZM323.14 45.594C320.694 46.728 317.448 47.294 313.402 47.294C307.355 47.294 303.064 45.994 300.53 43.394C297.995 40.794 296.728 36.561 296.728 30.694C296.728 24.739 297.995 20.451 300.53 17.828C303.064 15.206 307.355 13.894 313.402 13.894C317.448 13.894 320.694 14.473 323.14 15.628C325.585 16.784 327.352 18.594 328.442 21.061C329.531 23.528 330.076 26.739 330.076 30.694C330.076 34.606 329.531 37.784 328.442 40.228C327.352 42.673 325.585 44.461 323.14 45.594ZM318.638 24.661C317.726 23.484 315.98 22.894 313.402 22.894C310.911 22.894 309.189 23.484 308.233 24.661C307.276 25.839 306.799 27.784 306.799 30.494C306.799 33.339 307.276 35.328 308.233 36.461C309.189 37.594 310.911 38.161 313.402 38.161C315.98 38.161 317.726 37.594 318.638 36.461C319.548 35.328 320.005 33.339 320.005 30.494C320.005 27.784 319.548 25.839 318.638 24.661ZM287.51 45.561C285.419 46.717 282.751 47.294 279.506 47.294C277.816 47.294 276.293 47.139 274.937 46.828C273.581 46.517 272.458 46.139 271.569 45.694L271.436 45.761V59.094H260.765V14.228H270.902L271.436 18.828V19.228H271.569C272.325 17.406 273.403 16.061 274.804 15.194C276.205 14.328 278.239 13.894 280.907 13.894C285.219 13.894 288.387 15.151 290.411 17.661C292.434 20.173 293.467 23.961 293.512 29.028C293.601 33.517 293.145 37.106 292.145 39.794C291.145 42.484 289.599 44.406 287.51 45.561ZM282.041 24.828C281.329 23.584 279.795 22.961 277.439 22.961C275.66 22.961 274.214 23.506 273.103 24.594C271.991 25.684 271.436 27.539 271.436 30.161V37.161C273.08 37.828 275.015 38.161 277.238 38.161C279.328 38.161 280.829 37.661 281.74 36.661C282.651 35.661 283.108 33.651 283.108 30.628C283.108 28.006 282.751 26.073 282.041 24.828ZM242.711 29.828C242.711 27.651 242.388 26.073 241.744 25.094C241.099 24.117 239.843 23.628 237.976 23.628C236.108 23.628 234.852 24.117 234.208 25.094C233.563 26.073 233.241 27.651 233.241 29.828V46.694H222.569L222.502 29.828C222.502 27.651 222.179 26.073 221.535 25.094C220.89 24.117 219.635 23.628 217.767 23.628C215.9 23.628 214.643 24.117 213.999 25.094C213.354 26.073 213.032 27.651 213.032 29.828V46.694H202.36V14.228H212.498L213.032 20.161H213.232C213.809 18.206 214.821 16.673 216.266 15.561C217.711 14.451 219.768 13.894 222.436 13.894C225.104 13.894 227.205 14.451 228.739 15.561C230.273 16.673 231.262 18.206 231.707 20.161H231.907C232.484 18.161 233.607 16.617 235.275 15.528C236.942 14.439 239.42 13.894 242.711 13.894C246.001 13.894 248.614 14.984 250.548 17.161C252.482 19.339 253.449 23.117 253.449 28.494V46.694H242.778L242.711 29.828ZM189.735 45.594C187.29 46.728 184.043 47.294 179.998 47.294C173.95 47.294 169.66 45.994 167.125 43.394C164.591 40.794 163.324 36.561 163.324 30.694C163.324 24.739 164.591 20.451 167.125 17.828C169.66 15.206 173.95 13.894 179.998 13.894C184.043 13.894 187.29 14.473 189.735 15.628C192.18 16.784 193.948 18.594 195.038 21.061C196.127 23.528 196.672 26.739 196.672 30.694C196.672 34.606 196.127 37.784 195.038 40.228C193.948 42.673 192.18 44.461 189.735 45.594ZM185.233 24.661C184.322 23.484 182.576 22.894 179.998 22.894C177.507 22.894 175.784 23.484 174.829 24.661C173.872 25.839 173.395 27.784 173.395 30.494C173.395 33.339 173.872 35.328 174.829 36.461C175.784 37.594 177.507 38.161 179.998 38.161C182.576 38.161 184.322 37.594 185.233 36.461C186.144 35.328 186.601 33.339 186.601 30.494C186.601 27.784 186.144 25.839 185.233 24.661ZM146.578 47.294C142.977 47.294 139.942 46.984 137.474 46.361C135.006 45.739 133.027 44.639 131.538 43.061C130.048 41.484 128.97 39.251 128.303 36.361C127.636 33.473 127.303 29.761 127.303 25.228C127.303 20.873 127.636 17.294 128.303 14.494C128.97 11.694 130.048 9.528 131.538 7.994C133.027 6.461 135.006 5.394 137.474 4.794C139.942 4.194 142.977 3.894 146.578 3.894C149.379 3.894 151.802 3.994 153.848 4.194C155.893 4.394 157.983 4.739 160.117 5.228V13.894L159.917 14.028C158.05 13.584 156.249 13.261 154.515 13.061C152.781 12.861 150.647 12.761 148.112 12.761C146.066 12.761 144.388 12.906 143.077 13.194C141.765 13.484 140.731 14.051 139.975 14.894C139.219 15.739 138.697 16.984 138.408 18.628C138.118 20.273 137.974 22.473 137.974 25.228C137.974 28.117 138.118 30.439 138.408 32.194C138.697 33.951 139.219 35.273 139.975 36.161C140.731 37.051 141.765 37.651 143.077 37.961C144.388 38.273 146.066 38.428 148.112 38.428C150.602 38.428 152.725 38.351 154.482 38.194C156.238 38.039 158.005 37.739 159.784 37.294L160.117 37.561V45.961C157.983 46.406 155.893 46.739 153.848 46.961C151.802 47.184 149.379 47.294 146.578 47.294ZM110.539 30.561C110.539 28.073 110.16 26.294 109.405 25.228C108.648 24.161 107.226 23.628 105.136 23.628C103.179 23.628 101.801 24.106 101.001 25.061C100.201 26.017 99.778 27.651 99.734 29.961V46.694H89.062V14.228H99.2L99.734 20.161H99.934C100.556 18.161 101.668 16.617 103.269 15.528C104.869 14.439 107.092 13.894 109.938 13.894C113.807 13.894 116.663 14.984 118.509 17.161C120.353 19.339 121.277 23.117 121.277 28.494V46.694H110.605L110.539 30.561ZM76.438 45.594C73.992 46.728 70.745 47.294 66.7 47.294C60.652 47.294 56.362 45.994 53.828 43.394C51.293 40.794 50.026 36.561 50.026 30.694C50.026 24.739 51.293 20.451 53.828 17.828C56.362 15.206 60.652 13.894 66.7 13.894C70.745 13.894 73.992 14.473 76.438 15.628C78.882 16.784 80.65 18.594 81.74 21.061C82.829 23.528 83.374 26.739 83.374 30.694C83.374 34.606 82.829 37.784 81.74 40.228C80.65 42.673 78.882 44.461 76.438 45.594ZM71.936 24.661C71.024 23.484 69.278 22.894 66.7 22.894C64.209 22.894 62.487 23.484 61.531 24.661C60.574 25.839 60.097 27.784 60.097 30.494C60.097 33.339 60.574 35.328 61.531 36.461C62.487 37.594 64.209 38.161 66.7 38.161C69.278 38.161 71.024 37.594 71.936 36.461C72.846 35.328 73.303 33.339 73.303 30.494C73.303 27.784 72.846 25.839 71.936 24.661ZM45.189 24.428C44.277 24.294 43.244 24.228 42.088 24.228C40.442 24.228 38.964 24.494 37.653 25.028C36.341 25.561 35.318 26.594 34.585 28.128C33.851 29.661 33.484 31.939 33.484 34.961L33.351 46.694H22.679V14.228H31.35L32.217 20.894H32.417C32.817 18.406 33.773 16.617 35.285 15.528C36.796 14.439 39.042 13.894 42.021 13.894C43.222 13.894 44.311 13.951 45.289 14.061C46.267 14.173 47.09 14.273 47.757 14.361V24.761L47.624 24.894C46.912 24.717 46.1 24.561 45.189 24.428ZM3.84998 4.494H14.521V46.694H3.84998V4.494Z" stroke="black" stroke-linejoin="round"/>
</g>
<defs>
<filter id="filter0_d_1_2" x="1.34998" y="1.394" width="505.3" height="60.2" filterUnits="userSpaceOnUse" color-interpolation-filters="sRGB">
<feFlood flood-opacity="0" result="BackgroundImageFix"/>
<feColorMatrix in="SourceAlpha" type="matrix" values="0 0 0 0 0 0 0 0 0 0 0 0 0 0 0 0 0 0 127 0" result="hardAlpha"/>
<feOffset/>
<feGaussianBlur stdDeviation="1"/>
<feColorMatrix type="matrix" values="0 0 0 0 0 0 0 0 0 0 0 0 0 0 0 0 0 0 0.35 0"/>
<feBlend mode="normal" in2="BackgroundImageFix" result="effect1_dropShadow_1_2"/>
<feBlend mode="normal" in="SourceGraphic" in2="effect1_dropShadow_1_2" result="shape"/>
</filter>
<filter id="filter1_d_1_2" x="1.34998" y="1.394" width="505.3" height="60.2" filterUnits="userSpaceOnUse" color-interpolation-filters="sRGB">
<feFlood flood-opacity="0" result="BackgroundImageFix"/>
<feColorMatrix in="SourceAlpha" type="matrix" values="0 0 0 0 0 0 0 0 0 0 0 0 0 0 0 0 0 0 127 0" result="hardAlpha"/>
<feOffset/>
<feGaussianBlur stdDeviation="1"/>
<feColorMatrix type="matrix" values="0 0 0 0 0 0 0 0 0 0 0 0 0 0 0 0 0 0 0.35 0"/>
<feBlend mode="normal" in2="BackgroundImageFix" result="effect1_dropShadow_1_2"/>
<feBlend mode="normal" in="SourceGraphic" in2="effect1_dropShadow_1_2" result="shape"/>
</filter>
<filter id="filter2_d_1_2" x="1.34998" y="1.394" width="505.3" height="60.2" filterUnits="userSpaceOnUse" color-interpolation-filters="sRGB">
<feFlood flood-opacity="0" result="BackgroundImageFix"/>
<feColorMatrix in="SourceAlpha" type="matrix" values="0 0 0 0 0 0 0 0 0 0 0 0 0 0 0 0 0 0 127 0" result="hardAlpha"/>
<feOffset/>
<feGaussianBlur stdDeviation="1"/>
<feColorMatrix type="matrix" values="0 0 0 0 0 0 0 0 0 0 0 0 0 0 0 0 0 0 0.35 0"/>
<feBlend mode="normal" in2="BackgroundImageFix" result="effect1_dropShadow_1_2"/>
<feBlend mode="normal" in="SourceGraphic" in2="effect1_dropShadow_1_2" result="shape"/>
</filter>
<linearGradient id="paint0_linear_1_2" x1="254" y1="66" x2="254" y2="-9" gradientUnits="userSpaceOnUse">
<stop offset="0.208333" stop-color="white"/>
<stop offset="0.369792" stop-color="#5334C8"/>
<stop offset="0.4"/>
<stop offset="0.421875" stop-color="white"/>
<stop offset="0.807292" stop-color="#156797"/>
<stop offset="0.859375" stop-color="#5334C8"/>
</linearGradient>
</defs>
</svg>
